<svg width="39" height="36" viewBox="0 0 39 36" fill="none" xmlns="http://www.w3.org/2000/svg">
<g clip-path="url(#clip0)">
<path d="M0.238038 18.5303L12.4255 29.7803C12.6589 29.9942 13.0056 30.0594 13.311 29.9429C13.615 29.8272 13.8125 29.5533 13.8125 29.2501L13.8125 27.7501C13.8125 27.5509 13.7268 27.3604 13.5744 27.2198L5.21137 19.5001L38.1875 19.5001C38.6366 19.5 39 19.1646 39 18.75L39 17.2501C39 16.8355 38.6366 16.5 38.1875 16.5L5.21138 16.5L13.5744 8.78028C13.7268 8.63966 13.8125 8.44925 13.8125 8.24999L13.8125 6.75001C13.8125 6.44675 13.6149 6.17288 13.311 6.05715C13.2103 6.01834 13.1048 5.99999 13 5.99999C12.789 5.99999 12.5811 6.07613 12.4255 6.21971L0.238038 17.4697C-0.07937 17.7627 -0.0793701 18.2373 0.238038 18.5303Z" fill="black"/>
</g>
<defs>
<clipPath id="clip0">
<rect width="39" height="36" fill="white" transform="translate(39 36) rotate(-180)"/>
</clipPath>
</defs>
</svg>
