<svg width="39" height="36" viewBox="0 0 39 36" fill="none" xmlns="http://www.w3.org/2000/svg">
<g clip-path="url(#clip0)">
<path d="M38.762 17.4697L26.5745 6.21969C26.3411 6.0058 25.9944 5.94062 25.689 6.05706C25.385 6.17279 25.1875 6.44673 25.1875 6.74992V8.2499C25.1875 8.44909 25.2732 8.63957 25.4256 8.78019L33.7886 16.4999H0.812525C0.363416 16.5 0 16.8354 0 17.25V18.7499C0 19.1645 0.363416 19.5 0.812525 19.5H33.7886L25.4256 27.2197C25.2732 27.3603 25.1875 27.5507 25.1875 27.75V29.25C25.1875 29.5532 25.3851 29.8271 25.689 29.9428C25.7897 29.9817 25.8952 30 26 30C26.211 30 26.4189 29.9239 26.5745 29.7803L38.762 18.5303C39.0794 18.2373 39.0794 17.7627 38.762 17.4697Z" fill="black"/>
</g>
<defs>
<clipPath id="clip0">
<rect width="39" height="36" fill="white"/>
</clipPath>
</defs>
</svg>
